<?xml version="1.0" standalone="yes"?>
<svg xmlns="http://www.w3.org/2000/svg" width="997" height="997">
<path style="fill:#203f6c; stroke:none;" d="M0 0L0 467L1 467C1 423.564 12.6882 378.935 26.3333 338C75.1523 191.543 194.928 74.024 341 25.3333C380.882 12.0392 424.718 1 467 1C456.258 -3.50751 437.682 0 426 0L331 0L0 0z"/>
<path style="fill:#68a3d4; stroke:none;" d="M249 931C269.775 926.054 295.643 930 317 930L456 930L456 929C416.778 928.996 375.442 916.636 339 903.05C158.708 835.835 41.3362 648.109 59.8302 457C65.2104 401.404 80.7812 348.944 105.753 299C113.126 284.255 123.186 258.793 137.093 249.324C176.944 222.193 232.75 211.67 280 216.17C313.812 219.39 346.839 229.159 380 236L380 237C359.851 239.976 353.915 257.272 344.05 273C323.723 305.409 305.245 339.813 283.099 370.996C277.073 379.48 266.259 385.679 258 391.873C243.253 402.935 228.724 414.284 214 425.374C180.851 450.343 148.196 475.966 115 500.873C101.757 510.81 89.0512 522.25 75 531C80.3408 547.101 91.2272 535.234 100 528.626C119.424 513.995 138.557 498.98 158 484.373C187.476 462.231 216.523 439.517 246 417.373C260.234 406.681 280.221 395.761 291.391 381.91C314.063 353.798 330.854 318.607 350.05 288C356.308 278.022 363.788 258.28 374.093 252.278C411.839 230.295 451.117 259.824 490 263C489.999 276.111 480.591 282.595 472.424 292C460.091 306.205 447.146 319.88 434.715 334C429.452 339.978 422.385 345.74 419 353L461 339.053L531 314C536.886 325.53 547.139 335.883 555.199 346C569.974 364.544 584.652 383.215 599.119 402C605.641 410.469 615.703 429.66 626 433L626 432C616.245 424.819 609.248 412.473 601.789 403C586.858 384.036 571.846 365.123 557.119 346C551.435 338.619 545.566 331.382 539.881 324C537.515 320.928 534.7 315.689 530.911 314.238C524.33 311.717 507.476 321.004 501 323.424C474.547 333.314 447.85 343.249 421 352C434.572 332.73 453.22 315.48 469.075 298C475.619 290.786 485.619 282.735 489.972 274C494.145 265.628 491 249.282 491 240L491 157C483.237 161.491 477.54 171.96 472.119 179C459.395 195.524 447.131 215.617 431.91 229.867C421.321 239.781 398.61 242.463 385 247C380.246 248.585 374.033 249.633 370.379 253.278C361.128 262.504 354.58 277.827 347.797 289C329.559 319.04 312.436 353.575 290.391 380.91C281.84 391.513 266.886 399.706 256 407.873C234.217 424.218 212.753 440.989 191 457.374C162.884 478.552 135.161 500.253 107 521.373C101.688 525.357 83.5779 544.459 78.412 535.066C76.3525 531.322 80.4079 529.119 83.0015 527.116C89.6374 521.99 96.3151 516.932 103 511.87C132.057 489.87 161.233 467.954 190 445.576C211.842 428.585 234.221 412.281 256 395.21C264.664 388.419 275.511 382.443 282.621 373.961C292.219 362.512 299.454 347.763 307.203 335C318.405 316.548 330.245 298.481 341.399 280C348.132 268.843 354.565 254.724 363.379 245.133C367.486 240.664 374.475 239.574 380 237.656C393.397 233.005 410.676 229.951 422.829 222.722C431.132 217.783 437.425 205.483 443.4 198C458.588 178.977 478.944 158.659 490 137L518.873 174L584.015 261.867L602 271.421L638 287L655.471 295.418L677.424 334L729 427L730 427L698.309 369L657 295C705.741 295.403 752.008 291.326 799 276.659C812.461 272.458 825.89 268.227 839 263C842.32 261.676 849.759 256.974 853.24 258.982C857.199 261.267 860.103 268.194 862.399 272C869.628 283.983 876.473 296.29 882.309 309C905.45 359.397 920.203 411.554 924.089 467C936.539 644.625 834.253 817.016 672 891.309C628.035 911.439 575.905 928.995 527 929L527 930L676 930C698.576 930 726.043 925.772 748 931C756.034 923.739 767.853 918.933 777 912.921C794.838 901.199 811.949 887.768 828 873.714C886.339 822.634 929.79 758.924 960.281 688C984.522 631.614 997 568.226 997 507C997 431.293 983.456 358.179 951.691 289C929.737 241.188 899.767 196.492 863.911 158C739.739 24.7 546.835 -30.348 371 15.8843C313.973 30.8784 260.5 56.2932 212 89.6589C155.942 128.224 107.74 179.753 72.6011 238C33.3337 303.091 9.3887 375.414 1.83102 451C-6.48598 534.181 7.94652 616.786 39.2006 694C66.9757 762.619 113.886 826.515 170 874.572C186.237 888.477 203.203 901.78 221 913.645C229.825 919.528 241.211 923.961 249 931z"/>
<path style="fill:#203f6c; stroke:none;" d="M530 0L530 1C573.436 1 618.065 12.6882 659 26.3333C805.457 75.1522 922.976 194.928 971.667 341C984.961 380.882 996 424.718 996 467L997 467L997 0L530 0z"/>
<path style="fill:#d9e8f4; stroke:none;" d="M490 137C474.946 157.311 459.174 177.242 443.4 197C437.19 204.777 431.058 216.477 422.829 222.157C411.349 230.082 392.222 233.066 379 237.656C373.993 239.394 367.355 240.386 363.518 244.278C355.17 252.745 349.649 265.957 343.319 276C323.525 307.405 306.248 342.715 283.471 371.999C275.281 382.529 261.612 390.401 251 398.373C230.893 413.479 210.994 428.862 191 444.116C161.691 466.476 132.486 489.002 103 511.127C96.293 516.159 89.6677 521.29 83.0008 526.374C80.2454 528.475 76.1207 530.964 77.8009 534.985C82.5134 546.261 101.682 526.115 107 522.127C135.826 500.505 164.173 478.247 193 456.627C214.454 440.536 235.547 423.965 257 407.873C267.82 399.757 282.76 391.524 291.099 380.829C313.346 352.295 330.436 317.732 349.576 287C356.15 276.445 361.948 263.294 370.379 254.133C374.462 249.697 381.479 248.507 387 246.667C400.21 242.263 419.751 239.841 430.961 231.49C437.718 226.456 442.775 217.631 447.881 211C461.31 193.561 474.437 171.474 491 157L491 239C491 248.304 494.133 264.598 489.973 273C485.825 281.376 476.369 289.191 470.025 296C458.735 308.117 447.91 320.69 436.831 333C431.525 338.895 424.365 344.785 421 352C447.246 345.78 473.718 333.876 499 324.424C506.02 321.8 522.71 312.477 529.961 314.556C538.81 317.094 549.172 336.865 554.789 344C570.506 363.961 586.073 384.039 601.789 404C608.345 412.326 615.221 425.36 624.089 431.258C630.225 435.337 641.818 434.412 649 435.424C665.634 437.769 682.321 439.848 699 441.845C706.911 442.792 717.547 442.493 724.907 445.588C733.813 449.333 742.755 456.447 752 460.691C805.473 485.241 858.689 511.388 913 534C921.337 519.643 898.991 515.371 888 510.576C854.759 496.073 822.241 479.927 789 465.424C777.917 460.589 766.996 455.343 756 450.309C750.469 447.776 742.849 445.808 738.379 441.582C730.025 433.686 725.202 418.958 719.576 409C705.137 383.445 691.159 357.631 676.86 332C670.482 320.566 664.948 305.073 656.096 295.418C649.303 288.01 633.157 284.547 624 280.576C612.68 275.665 595.63 271.611 586.325 263.502C580.463 258.393 576.024 250.226 571.374 244C552.267 218.414 533.534 192.547 514.373 167C507.661 158.05 500.065 142.111 490 137z"/>
<path style="fill:#203f6c; stroke:none;" d="M456 929L456 930L315 930C294.987 930 268.154 925.338 249 931C242.777 922.505 226.757 917.102 218 910.859C194.465 894.079 171.475 876.474 151 856C87.7613 792.765 42.1228 717.107 17.5787 631C8.39532 598.783 1 563.599 1 530L0 530L0 997L997 997L997 530L996 530C996 563.599 988.605 598.783 979.421 631C954.877 717.107 909.239 792.765 846 856C825.551 876.448 802.592 894.202 779 910.856C770.234 917.043 754.213 922.518 748 931L724 930L678 930L527 930L527 929C576.335 929 628.621 911.629 673 891.309C832.125 818.448 941.021 643.349 924.17 467C918.807 410.875 905.894 359.364 882.309 308C876.635 295.644 870.011 283.661 863 272C860.618 268.038 857.789 261.219 853.674 258.813C849.819 256.56 842.658 261.138 839 262.6C826.215 267.711 813.151 271.981 800 276.025C752.4 290.661 706.342 295.136 657 295C674.549 328.352 693.553 360.967 711.694 394C719.307 407.862 726.911 430.679 738.61 441.301C745.411 447.476 757.689 450.493 766 454.309C785.305 463.172 804.791 471.714 824 480.781C847.868 492.047 872.164 502.411 896 513.745C900.333 515.805 917.286 520.443 917.044 526.105C916.441 540.231 895.952 526.79 890 524.139C861.909 511.628 833.771 498.95 806 485.745C784.864 475.694 763.451 465.934 742 456.576C735.305 453.655 728.856 446.838 721.985 445.595C700.004 441.618 677.205 439.543 655 437.05C646.464 436.092 631.558 436.874 624.3 432.062C613.135 424.659 604.304 407.477 595.997 397C574.194 369.504 551.895 342.191 531 314L449 343.003L419 353C434.19 331.416 455.111 312.941 472.424 293C481.076 283.035 490 276.815 490 263C469.652 260.26 448.865 253.339 429 248.116C421.299 246.091 412.034 241.889 404 242.275C395.216 242.696 381.943 247.848 374.093 251.8C363.817 256.974 356.059 277.419 350.05 287C330.891 317.548 312.98 349.133 292.768 378.996C285.364 389.936 270.494 398 260 405.873C237.883 422.469 216.121 439.535 194 456.127C165.178 477.744 136.539 499.662 108 521.651C98.0015 529.355 83.3831 547.828 75 531C91.0937 524.197 106.013 508.365 120 497.873C152.533 473.472 184.472 448.282 217 423.873C231.41 413.06 245.589 401.94 260 391.127C267.575 385.443 277.529 379.726 283.099 371.985C304.93 341.648 323.113 307.779 342.808 276C353.198 259.235 359.493 241.744 380 237C375.353 233.689 368.509 233.19 363 231.884C350.4 228.898 337.693 226.155 325 223.6C275.364 213.61 229.533 212.486 181 228.667C166.283 233.573 146.12 239.965 134.518 250.634C125.426 258.994 119.219 273.363 113.15 284C94.9735 315.859 81.2055 350.548 71.8843 386C16.3563 597.194 132.137 826.302 338 903.05C374.844 916.786 416.365 929 456 929z"/>
<path style="fill:#a7b73d; stroke:none;" d="M362 245L363 246L362 245M364 262L365 263L364 262M349 266L350 267L349 266M359 270L360 271L359 270M344 274L345 275L344 274M483 281L484 282L483 281M346 291L347 292L346 291M474 291L475 292L474 291M657 297L658 298L657 297M341 299L342 300L341 299M326 303L327 304L326 303M526 314L527 315L526 314M512 319L513 320L512 319M498 324L499 325L498 324M323 328L324 329L323 328M484 329L485 330L484 329M308 332L309 333L308 332M470 334L471 335L470 334M318 336L319 337L318 336M456 339L457 340L456 339M442 344L443 345L442 344M428 349L429 350L428 349M688 353L689 354L688 353M566 358L567 359L566 358z"/>
<path style="fill:#68a3d4; stroke:none;" d="M337 360L337 429L336.397 460L325 473L301 497L241 556.471L200 581L200 582C241.556 564.093 270.686 530.314 302 499C312.051 488.949 332.158 475.349 337.258 462C340.502 453.506 338 440.044 338 431L338 361L347 361L347 436C347 444.12 349.834 458.972 345.397 466C336.977 479.337 321.153 490.847 310 502C289.66 522.34 270.187 545.374 248 563.671C238.919 571.161 227.122 576.395 217 582.397C213.45 584.501 207.179 586.638 205.068 590.379C203.194 593.699 205.924 598.6 206.535 602C207.626 608.063 206.476 613.966 206 620C208.842 614.655 208.591 606.868 207.535 601C206.978 597.9 204.558 593.498 206.697 590.61C209.13 587.324 214.557 585.438 218 583.397C227.835 577.565 238.946 572.449 248 565.471C272.694 546.436 293.946 520.054 316 498C322.6 491.4 328.998 484.462 336 478.286C340.428 474.38 346.64 470.209 347.772 464C352.314 439.071 348 409.375 348 384C348 371.958 351.977 360.002 337 360z"/>
<path style="fill:#d9e8f4; stroke:none;" d="M338 361L338 430C338 439.044 340.502 452.506 337.258 461C332.667 473.016 315.026 484.974 306 494C285.566 514.434 265.881 538.833 243 556.471C230.007 566.486 211.43 571.211 200 583L199 583C169.082 540.556 103.41 580.481 124 627C114.351 631.51 101.331 636.14 104 648C111.113 646.369 120.944 635.501 128 636.727C132.882 637.575 137.554 644.243 142 646.687C154.339 653.468 170.364 654.048 183 647.73C196.462 640.999 206.269 627.235 206.961 612C207.21 606.503 202.711 593.481 206.358 589.61C217.24 578.058 236.538 573.591 249 563.621C272.427 544.879 292.779 520.221 314 499C323.137 489.863 341.904 477.185 346.397 465C349.62 456.258 347 442.292 347 433L347 361L338 361z"/>
<path style="fill:#a7b73d; stroke:none;" d="M693 362L694 363L693 362M300 365L301 366L300 365M285 369L286 370L285 369z"/>
<path style="fill:#68a3d4; stroke:none;" d="M218 813L219 813C228.963 803.037 245.03 791.802 251 779L250 779L219 812L218 812C206.158 797.835 239.659 787.095 241.852 773C244.763 754.282 242 732.961 242 714C242 706.825 239.963 696.118 244.279 690C254.605 675.363 269.599 662.927 281.961 650C303.811 627.149 325.539 604.134 347.09 581C355.245 572.245 363.545 563.459 372 555C375.957 551.041 381.711 546.819 382.772 541C385.112 528.155 383 513.062 383 500L383 416L383 385C383 381.767 382.031 376.069 385.317 374.047C392.545 369.601 392 382.583 392 386L392 433L392 511C392 520.842 394.807 535.747 391.397 545C387.038 556.825 370.962 567.649 362.715 577C337.532 605.551 309.865 632.137 283.91 660C273.804 670.85 257.273 682.549 251 696C288.164 663.853 320.08 623.515 354.039 588C362.993 578.637 371.862 569.181 380.999 560C385.054 555.926 391.255 550.808 392.683 545C395.841 532.156 393 515.238 393 502L393 411C393 399.867 394.771 387.068 392.852 376.109C392.178 372.263 387.621 371.081 384.318 372.743C380.978 374.424 382 379.95 382 383L382 413L382 497C382 510.527 383.909 525.639 381.852 539C380.944 544.897 374.987 549.961 370.996 554C361.878 563.228 353.074 572.713 344.015 582C321.628 604.949 299.763 628.541 277.91 652C266.892 663.829 252.954 674.845 243.573 688C238.943 694.492 241 705.399 241 713C241 732.102 242.598 751.977 240.941 771C239.627 786.099 201.193 799.139 218 813z"/>
<path style="fill:#d9e8f4; stroke:none;" d="M218 812C227.567 805.261 246.035 790.054 250.258 779C252.341 773.547 251 765.762 251 760L251 716C251 710.015 249.514 701.667 251.603 696C254.928 686.984 268.195 676.816 275 670C303.315 641.64 329.826 611.509 357.996 583C366.617 574.275 375.384 565.261 383.424 556C386.307 552.68 390.572 549.427 391.682 545C394.815 532.503 392 515.895 392 503L392 412C392 401.34 392.197 390.659 391.995 380.001C391.923 376.182 390.339 371.241 385.317 373.608C381.955 375.193 383 381.012 383 384L383 414C383 454.836 387.423 498.445 382.891 539C382.177 545.393 376.262 549.736 372 554C363.545 562.459 355.245 571.245 347.09 580C325.539 603.135 303.812 626.148 281.961 649C269.599 661.927 254.605 674.363 244.279 689C239.963 695.118 242 705.825 242 713C242 732.102 243.598 751.977 241.941 771C240.744 784.751 203.446 799.705 218 812z"/>
<path style="fill:#a7b73d; stroke:none;" d="M277 378L278 379L277 378M288 383L289 384L288 383z"/>
<path style="fill:#68a3d4; stroke:none;" d="M427 628L423 628L423 629C428.959 628.005 428 623.044 428 618L428 585L428 441L428 401C428 397.318 426.658 389.055 432.039 388.466C438.023 387.811 437 396.359 437 400L437 442L437 583L437 616C437 620.572 435.773 626.26 440 629C436.995 623.597 438 617.009 438 611L438 576L438 446L438 404C438 400.13 439.545 391.92 436.972 388.742C432.519 383.242 427.095 389.244 427.005 394.004C426.688 410.656 427 427.345 427 444L427 628z"/>
<path style="fill:#d9e8f4; stroke:none;" d="M334 884C345.633 890.096 351.781 879.564 360 872.424C380.161 854.911 399.196 836.082 419 818.17C424.156 813.506 433.845 807.578 436.397 800.961C439.702 792.389 437 778.163 437 769C437 744.669 436.833 720.331 437.001 696C437.071 685.805 445.25 686.285 451.826 680.482C457.886 675.136 461.821 666.095 461.821 658C461.821 648.974 457.149 639.542 449.961 634.171C446.135 631.312 438.69 630.016 437.318 624.945C434.544 614.696 437 600.622 437 590L437 515L437 418C437 412.717 439.981 389.876 433.857 388.337C424.54 385.997 428 414.303 428 420L428 528L428 594C428 603.414 430.163 615.859 427.682 624.942C426.256 630.163 417.014 631.406 413.004 634.529C404.371 641.252 401.235 651.364 402.093 662C402.778 670.483 407.892 678.448 415 683.031C418.565 685.33 425.596 685.961 427.397 690.144C430.08 696.379 428 707.262 428 714L428 771C428 778.243 430.326 790.443 426.972 796.985C422.801 805.124 411.528 811.677 405 818.014C382.3 840.049 353.842 859.392 334 884z"/>
<path style="fill:#a7b73d; stroke:none;" d="M256 394L257 395L256 394M267 399L268 400L267 399z"/>
<path style="fill:#68a3d4; stroke:none;" d="M472 402L472 610L472 678C472 688.634 470.514 700.495 472.148 711C473.121 717.253 479.649 721.233 484 725.17C493.747 733.99 510.773 745.541 516.972 757.089C521.913 766.294 518 786.595 518 797L518 874C518 887.578 519.974 902.277 515 915C518.357 915 524.611 916.179 527.397 913.972C529.749 912.109 528.999 907.617 529 905L529 880L529 772C529 766.292 530.391 758.408 528.397 753C525.287 744.571 511.713 735.256 505 729.424C498.887 724.114 484.443 714.284 483.148 705.999C481.507 695.5 483 683.63 483 673L483 607L483 402L472 402z"/>
<path style="fill:#d9e8f4; stroke:none;" d="M473 403L473 615L473 681C473 690.564 470.981 702.721 473.318 711.999C474.62 717.168 480.387 720.49 484 724.015C493.854 733.626 511.811 744.739 517.972 757.001C522.266 765.548 519 782.503 519 792L519 876C519 885.577 522.807 905.79 516 913L516 914C518.927 914 523.949 914.911 526.397 912.972C528.749 911.109 527.999 906.617 528 904L528 880L528 771C528 765.606 529.325 758.116 527.397 753.015C523.379 742.385 506.046 732.005 498 724.001C492.965 718.992 483.314 713.495 482.148 706C480.514 695.495 482 683.634 482 673L482 607L482 403L473 403z"/>
<path style="fill:#a7b73d; stroke:none;" d="M235 410L236 411L235 410M246 415L247 416L246 415z"/>
<path style="fill:#68a3d4; stroke:none;" d="M517 426L518 426C518.012 422.584 519.587 411.953 525.397 417.608C527.838 419.984 527 424.936 527 428L527 456L527 567L527 601C527 605.568 525.927 611.799 528.028 616C532.941 625.827 545.323 633.361 553 641.001C573.779 661.678 595.263 682.162 617 701.83C628.034 711.815 647.742 724.213 649 740C654.007 727.173 630.683 712.596 623 705.004C603.822 686.054 583.994 667.261 564 649.17C553.148 639.35 537.44 628.413 529.603 616C526.967 611.824 528 605.725 528 601L528 568L528 456L528 428C528 424.928 529.047 419.305 526.972 416.742C520.473 408.716 517.003 421.715 517 426z"/>
<path style="fill:#d9e8f4; stroke:none;" d="M647 773C628.682 780.117 617.792 803.851 636.04 818.468C641.025 822.461 653.659 821.916 656.297 827.148C663.179 840.795 662.149 861.115 666 876C675.814 873.156 673.169 867.315 671.611 859C669.674 848.663 663.815 833.436 665.488 823.039C666.977 813.786 677.849 809.565 677.544 798C677.334 790.024 673.528 782.422 666.996 777.8C663.218 775.127 657.652 774.454 655.514 769.945C649.785 757.865 653.414 741.761 647.012 730C643.359 723.291 635.353 718.342 630 713C616.032 699.06 601.443 685.543 587 672.089L543 630.911C537.884 626.145 528.279 619.273 527.148 612C524.777 596.757 527 579.438 527 564L527 466L527 430C527 426.701 528.354 419.346 525.397 417.029C519.344 412.285 518.008 421.313 518 425L518 464L518 580C518 599.453 514.066 616.681 529 630.961C553.516 654.403 578.177 677.788 603 700.911C613.991 711.148 631.793 722.735 639.012 736C644.783 746.606 643.131 761.571 647 773z"/>
<path style="fill:#a7b73d; stroke:none;" d="M613 418L614 419L613 418M214 426L215 427L214 426M729 427L730 428L729 427z"/>
<path style="fill:#68a3d4; stroke:none;" d="M730 428L731 429L730 428M731.333 429.667L731.667 430.333L731.333 429.667z"/>
<path style="fill:#a7b73d; stroke:none;" d="M225 431L226 432L225 431z"/>
<path style="fill:#68a3d4; stroke:none;" d="M563 431L564 432L563 431z"/>
<path style="fill:#d9e8f4; stroke:none;" d="M820 753C821.576 750.702 823.927 748.015 823.253 745C822.422 741.281 818.272 737.792 815.87 735C809.479 727.574 799.454 709.969 789 709.059C776.858 708.001 764.191 709 752 709C747.177 709 740.429 710.187 736 707.972C722.053 700.999 709.021 682.021 698 671L615 588L586 559C581.658 554.658 574.988 549.879 572.742 544C569.113 534.5 572 519.131 572 509L572 431C558.768 431.047 563 445.934 563 456L563 524C563 531.85 560.606 544.355 565.434 551C575.558 564.937 590.821 576.816 603 589C625.476 611.484 647.499 634.499 670 657L710 697C716.232 703.232 722.527 711.679 730 716.397C734.176 719.033 740.275 718 745 718C757.032 718 775.716 714.436 787 718.603C800.614 723.631 808.182 744.605 820 753z"/>
<path style="fill:#68a3d4; stroke:none;" d="M572 431L572 545L573 545L573 466L572 431M732.333 431.667L732.667 432.333L732.333 431.667M627 433L627 434L634 434L627 433M733.333 433.667L733.667 434.333L733.333 433.667M634 434L634 435L642 435L634 434M642 435L642 436L649 436L642 435z"/>
<path style="fill:#a7b73d; stroke:none;" d="M649 435L650 436L649 435z"/>
<path style="fill:#68a3d4; stroke:none;" d="M734 435L735 436L734 435M650 436L650 437L657 437L650 436z"/>
<path style="fill:#a7b73d; stroke:none;" d="M734 436L735 437L734 436z"/>
<path style="fill:#68a3d4; stroke:none;" d="M658 437L658 438L665 438L658 437M735 437L736 438L735 437M666 438L666 439L673 439L666 438M736.333 438.667L736.667 439.333L736.333 438.667M674 439L674 440L681 440L674 439M682 440L682 441L689 441L682 440M737.333 440.667L737.667 441.333L737.333 440.667M689 441L689 442L697 442L689 441z"/>
<path style="fill:#a7b73d; stroke:none;" d="M193 442L194 443L193 442z"/>
<path style="fill:#68a3d4; stroke:none;" d="M697 442L697 443L704 443L697 442z"/>
<path style="fill:#a7b73d; stroke:none;" d="M704 442L705 443L704 442z"/>
<path style="fill:#68a3d4; stroke:none;" d="M738.667 442.333L739.333 442.667L738.667 442.333M517 443L517 455L518 455L517 443M562 443L562 455L563 455L562 443M705 443L705 444L712 444L705 443z"/>
<path style="fill:#a7b73d; stroke:none;" d="M740 443L741 444L740 443z"/>
<path style="fill:#68a3d4; stroke:none;" d="M741.667 443.333L742.333 443.667L741.667 443.333M607 455L608 455L608 445L617 445C617 458.107 613.327 477.618 617.589 490C620.518 498.509 630.827 505.824 637 512C650.991 525.996 664.043 540.974 678.001 555C689.263 566.316 701.319 585.752 718 588L718 587C700.776 583.434 686.517 561.46 674.911 549C662.584 535.767 649.786 522.787 637 510C631.312 504.312 621.43 496.667 618.603 489C614.156 476.936 618 456.874 618 444C608.598 444.001 607.001 445.598 607 455M713 444L713 445L720 445L713 444M743.667 444.333L744.333 444.667L743.667 444.333z"/>
<path style="fill:#d9e8f4; stroke:none;" d="M608 445C608 458.942 603.77 480.983 608.742 494C610.584 498.82 615.49 502.328 618.911 506C627.402 515.117 636.474 523.765 644.83 533C657.789 547.321 671.342 561.342 685 575C690.455 580.455 695.726 587.917 702.039 592.297C709.374 597.385 721.447 598.625 730 600.884C746.169 605.155 763.327 612.546 780 614C780.19 636.994 800.52 656.552 824 647.532C831.341 644.711 836.534 634.514 843.093 632.904C852.937 630.486 870.097 639.951 880 642L883 634C872.777 629.602 854.804 630.04 846.488 622.606C844.064 620.44 845.019 615.924 844.561 613C843.701 607.507 841.899 602.435 838.471 598.001C822.701 577.6 791.934 582.983 782 606C759.269 598.732 731.198 596.541 710 585.697C701.913 581.56 696.258 572.338 689.996 566C673.742 549.551 657.935 532.706 641.961 516C634.563 508.264 621.166 499.394 617.589 489C613.417 476.88 617 457.827 617 445L608 445z"/>
<path style="fill:#68a3d4; stroke:none;" d="M721 445L721 446L727 446L721 445M745.667 445.333L746.333 445.667L745.667 445.333M727.333 446.667L727.667 447.333L727.333 446.667M747.667 446.333L748.333 446.667L747.667 446.333z"/>
<path style="fill:#a7b73d; stroke:none;" d="M204 447L205 448L204 447z"/>
<path style="fill:#68a3d4; stroke:none;" d="M749.667 447.333L750.333 447.667L749.667 447.333M728 448L729 449L728 448M751 448L751 449L754 449L751 448M729.333 449.667L729.667 450.333L729.333 449.667M754.667 449.333L755.333 449.667L754.667 449.333M756.667 450.333L757.333 450.667L756.667 450.333M730 451L730 452L733 452L730 451M758.667 451.333L759.333 451.667L758.667 451.333M733.667 452.333L734.333 452.667L733.667 452.333M760.667 452.333L761.333 452.667L760.667 452.333M735.667 453.333L736.333 453.667L735.667 453.333M762 453L762 454L765 454L762 453M737.667 454.333L738.333 454.667L737.667 454.333M765.667 454.333L766.333 454.667L765.667 454.333M739.667 455.333L740.333 455.667L739.667 455.333M767.667 455.333L768.333 455.667L767.667 455.333M741.667 456.333L742.333 456.667L741.667 456.333z"/>
<path style="fill:#a7b73d; stroke:none;" d="M743 456L744 457L743 456z"/>
<path style="fill:#68a3d4; stroke:none;" d="M769.667 456.333L770.333 456.667L769.667 456.333M744.667 457.333L745.333 457.667L744.667 457.333M771.667 457.333L772.333 457.667L771.667 457.333z"/>
<path style="fill:#a7b73d; stroke:none;" d="M172 458L173 459L172 458z"/>
<path style="fill:#68a3d4; stroke:none;" d="M746.667 458.333L747.333 458.667L746.667 458.333M773.667 458.333L774.333 458.667L773.667 458.333M748.667 459.333L749.333 459.667L748.667 459.333M776.667 459.333L777.333 459.667L776.667 459.333M750.667 460.333L751.333 460.667L750.667 460.333M778.667 460.333L779.333 460.667L778.667 460.333M752.667 461.333L753.333 461.667L752.667 461.333M780.667 461.333L781.333 461.667L780.667 461.333M755.667 462.333L756.333 462.667L755.667 462.333M782.667 462.333L783.333 462.667L782.667 462.333z"/>
<path style="fill:#a7b73d; stroke:none;" d="M183 463L184 464L183 463z"/>
<path style="fill:#68a3d4; stroke:none;" d="M757.667 463.333L758.333 463.667L757.667 463.333M784.667 463.333L785.333 463.667L784.667 463.333M759.667 464.333L760.333 464.667L759.667 464.333z"/>
<path style="fill:#a7b73d; stroke:none;" d="M786 464L787 465L786 464z"/>
<path style="fill:#68a3d4; stroke:none;" d="M787.667 464.333L788.333 464.667L787.667 464.333M761.667 465.333L762.333 465.667L761.667 465.333M789.667 465.333L790.333 465.667L789.667 465.333M763.667 466.333L764.333 466.667L763.667 466.333M791.667 466.333L792.333 466.667L791.667 466.333M765 467L765 468L768 468L765 467M793.667 467.333L794.333 467.667L793.667 467.333M768.667 468.333L769.333 468.667L768.667 468.333M795.667 468.333L796.333 468.667L795.667 468.333M770.667 469.333L771.333 469.667L770.667 469.333M797 469L797 470L800 470L797 469M772.667 470.333L773.333 470.667L772.667 470.333M800.667 470.333L801.333 470.667L800.667 470.333M774.667 471.333L775.333 471.667L774.667 471.333M802.667 471.333L803.333 471.667L802.667 471.333M776 472L776 473L779 473L776 472M804.667 472.333L805.333 472.667L804.667 472.333M779.667 473.333L780.333 473.667L779.667 473.333M806.667 473.333L807.333 473.667L806.667 473.333z"/>
<path style="fill:#a7b73d; stroke:none;" d="M151 474L152 475L151 474z"/>
<path style="fill:#68a3d4; stroke:none;" d="M781.667 474.333L782.333 474.667L781.667 474.333M808 474L808 475L811 475L808 474M783.667 475.333L784.333 475.667L783.667 475.333M811.667 475.333L812.333 475.667L811.667 475.333M785.667 476.333L786.333 476.667L785.667 476.333M813.667 476.333L814.333 476.667L813.667 476.333M787 477L787 478L790 478L787 477M815.667 477.333L816.333 477.667L815.667 477.333M790.667 478.333L791.333 478.667L790.667 478.333M817.667 478.333L818.333 478.667L817.667 478.333z"/>
<path style="fill:#a7b73d; stroke:none;" d="M162 479L163 480L162 479z"/>
<path style="fill:#68a3d4; stroke:none;" d="M792.667 479.333L793.333 479.667L792.667 479.333M819 479L819 480L822 480L819 479M794.667 480.333L795.333 480.667L794.667 480.333M822.667 480.333L823.333 480.667L822.667 480.333M796.667 481.333L797.333 481.667L796.667 481.333M824.667 481.333L825.333 481.667L824.667 481.333M798.667 482.333L799.333 482.667L798.667 482.333z"/>
<path style="fill:#a7b73d; stroke:none;" d="M800 482L801 483L800 482z"/>
<path style="fill:#68a3d4; stroke:none;" d="M826.667 482.333L827.333 482.667L826.667 482.333M801.667 483.333L802.333 483.667L801.667 483.333M828.667 483.333L829.333 483.667L828.667 483.333M803.667 484.333L804.333 484.667L803.667 484.333M830.667 484.333L831.333 484.667L830.667 484.333M805.667 485.333L806.333 485.667L805.667 485.333M833.667 485.333L834.333 485.667L833.667 485.333M807.667 486.333L808.333 486.667L807.667 486.333M835.667 486.333L836.333 486.667L835.667 486.333M809.667 487.333L810.333 487.667L809.667 487.333M837.667 487.333L838.333 487.667L837.667 487.333M812.667 488.333L813.333 488.667L812.667 488.333M839.667 488.333L840.333 488.667L839.667 488.333M814.667 489.333L815.333 489.667L814.667 489.333M841.667 489.333L842.333 489.667L841.667 489.333z"/>
<path style="fill:#a7b73d; stroke:none;" d="M130 490L131 491L130 490z"/>
<path style="fill:#68a3d4; stroke:none;" d="M816.667 490.333L817.333 490.667L816.667 490.333z"/>
<path style="fill:#a7b73d; stroke:none;" d="M843 490L844 491L843 490z"/>
<path style="fill:#68a3d4; stroke:none;" d="M844.667 490.333L845.333 490.667L844.667 490.333M818.667 491.333L819.333 491.667L818.667 491.333M846.667 491.333L847.333 491.667L846.667 491.333M820.667 492.333L821.333 492.667L820.667 492.333M848.667 492.333L849.333 492.667L848.667 492.333M822 493L822 494L825 494L822 493M850.667 493.333L851.333 493.667L850.667 493.333M608.333 494.667L608.667 495.333L608.333 494.667M825.667 494.333L826.333 494.667L825.667 494.333M852.667 494.333L853.333 494.667L852.667 494.333z"/>
<path style="fill:#a7b73d; stroke:none;" d="M141 495L142 496L141 495z"/>
<path style="fill:#68a3d4; stroke:none;" d="M827.667 495.333L828.333 495.667L827.667 495.333M854 495L854 496L857 496L854 495M609 496L610 497L609 496M829.667 496.333L830.333 496.667L829.667 496.333M857.667 496.333L858.333 496.667L857.667 496.333M610 497L611 498L610 497M831.667 497.333L832.333 497.667L831.667 497.333M859.667 497.333L860.333 497.667L859.667 497.333M611 498L612 499L611 498M833 498L833 499L836 499L833 498M861.667 498.333L862.333 498.667L861.667 498.333M612 499L613 500L612 499M836.667 499.333L837.333 499.667L836.667 499.333M863.667 499.333L864.333 499.667L863.667 499.333M613 500L614 501L613 500M838.667 500.333L839.333 500.667L838.667 500.333M865 500L865 501L868 501L865 500M614 501L615 502L614 501M840.667 501.333L841.333 501.667L840.667 501.333M868.667 501.333L869.333 501.667L868.667 501.333M615 502L616 503L615 502M842.667 502.333L843.333 502.667L842.667 502.333M870.667 502.333L871.333 502.667L870.667 502.333M616 503L622 510L616 503M844.667 503.333L845.333 503.667L844.667 503.333z"/>
<path style="fill:#a7b73d; stroke:none;" d="M846 503L847 504L846 503z"/>
<path style="fill:#68a3d4; stroke:none;" d="M872.667 503.333L873.333 503.667L872.667 503.333M847.667 504.333L848.333 504.667L847.667 504.333M874.667 504.333L875.333 504.667L874.667 504.333M849.667 505.333L850.333 505.667L849.667 505.333M876.667 505.333L877.333 505.667L876.667 505.333z"/>
<path style="fill:#a7b73d; stroke:none;" d="M109 506L110 507L109 506z"/>
<path style="fill:#68a3d4; stroke:none;" d="M851.667 506.333L852.333 506.667L851.667 506.333M879.667 506.333L880.333 506.667L879.667 506.333M853.667 507.333L854.333 507.667L853.667 507.333M881.667 507.333L882.333 507.667L881.667 507.333M855.667 508.333L856.333 508.667L855.667 508.333M883.667 508.333L884.333 508.667L883.667 508.333M858.667 509.333L859.333 509.667L858.667 509.333M885.667 509.333L886.333 509.667L885.667 509.333M622 510L623 511L622 510M860.667 510.333L861.333 510.667L860.667 510.333M887.667 510.333L888.333 510.667L887.667 510.333z"/>
<path style="fill:#a7b73d; stroke:none;" d="M120 511L121 512L120 511z"/>
<path style="fill:#68a3d4; stroke:none;" d="M623 511L624 512L623 511M862.667 511.333L863.333 511.667L862.667 511.333M890.667 511.333L891.333 511.667L890.667 511.333M624 512L625 513L624 512M864.667 512.333L865.333 512.667L864.667 512.333M892.667 512.333L893.333 512.667L892.667 512.333M625 513L626 514L625 513M866.667 513.333L867.333 513.667L866.667 513.333M894.667 513.333L895.333 513.667L894.667 513.333M626 514L627 515L626 514M869.667 514.333L870.333 514.667L869.667 514.333M896.667 514.333L897.333 514.667L896.667 514.333M627 515L628 516L627 515M871.667 515.333L872.333 515.667L871.667 515.333M898.667 515.333L899.333 515.667L898.667 515.333M628 516L629 517L628 516M873.667 516.333L874.333 516.667L873.667 516.333z"/>
<path style="fill:#a7b73d; stroke:none;" d="M900 516L901 517L900 516z"/>
<path style="fill:#68a3d4; stroke:none;" d="M901.667 516.333L902.333 516.667L901.667 516.333M629 517L630 518L629 517M875.667 517.333L876.333 517.667L875.667 517.333M903.667 517.333L904.333 517.667L903.667 517.333M630 518L631 519L630 518M877.667 518.333L878.333 518.667L877.667 518.333M905.667 518.333L906.333 518.667L905.667 518.333M631 519L632 520L631 519M879 519L879 520L882 520L879 519M907.667 519.333L908.333 519.667L907.667 519.333M632 520L633 521L632 520M882.667 520.333L883.333 520.667L882.667 520.333M909.667 520.333L910.333 520.667L909.667 520.333M633 521L634 522L633 521M884.667 521.333L885.333 521.667L884.667 521.333M911 521L911 522L914 522L911 521z"/>
<path style="fill:#a7b73d; stroke:none;" d="M88 522L89 523L88 522z"/>
<path style="fill:#68a3d4; stroke:none;" d="M634 522L635 523L634 522M886.667 522.333L887.333 522.667L886.667 522.333M914.667 522.333L915.333 522.667L914.667 522.333M635 523L636 524L635 523M888.667 523.333L889.333 523.667L888.667 523.333M916 523L917 527L918 527L916 523M636 524L637 525L636 524M890 524L890 525L893 525L890 524M637 525L638 526L637 525M893.667 525.333L894.333 525.667L893.667 525.333M638 526L639 527L638 526M895.667 526.333L896.333 526.667L895.667 526.333M639 527L640 528L639 527M897.667 527.333L898.333 527.667L897.667 527.333M916.333 527.667L916.667 528.333L916.333 527.667M640 528L641 529L640 528M899.667 528.333L900.333 528.667L899.667 528.333M641 529L647 536L641 529M901 529L901 530L904 530L901 529M915.333 529.667L915.667 530.333L915.333 529.667M904.667 530.333L905.333 530.667L904.667 530.333M906.667 531.333L907.333 531.667L906.667 531.333M914.333 531.667L914.667 532.333L914.333 531.667M908.667 532.333L909.333 532.667L908.667 532.333M910.667 533.333L911.333 533.667L910.667 533.333M913 533L914 534L913 533M647 536L648 537L647 536M648 537L649 538L648 537M649 538L650 539L649 538M650 539L651 540L650 539M651 540L652 541L651 540M652 541L653 542L652 541M653 542L654 543L653 542M654 543L655 544L654 543M655 544L656 545L655 544M573 545C578.518 556.832 595.354 571.501 606 579C600.482 567.168 583.646 552.499 573 545M656 545L657 546L656 545M657 546L658 547L657 546M658 547L659 548L658 547z"/>
<path style="fill:#a7b73d; stroke:none;" d="M563 548L564 549L563 548z"/>
<path style="fill:#68a3d4; stroke:none;" d="M659 548L660 549L659 548M563 549L564 550L563 549M660 549L661 550L660 549M564 550L565 551L564 550M661 550L662 551L661 550M565 551L566 552L565 551M662 551L663 552L662 551M566 552L567 553L566 552M663 552L664 553L663 552M567 553L568 554L567 553M664 553L665 554L664 553M568 554L583 571L612 599L597 582L568 554M665 554L666 555L665 554M666 555L673 563L666 555z"/>
<path style="fill:#a7b73d; stroke:none;" d="M240 558L241 559L240 558M672 561L673 562L672 561z"/>
<path style="fill:#68a3d4; stroke:none;" d="M673 563L674 564L673 563M158 564L158 565L170 565L158 564M674 564L675 565L674 564M153 565L153 566L157 566L153 565M170 565L170 566L175 566L170 565M675 565L676 566L675 565M149 566L149 567L152 567L149 566M175 566L175 567L178 567L175 566z"/>
<path style="fill:#a7b73d; stroke:none;" d="M244 566L245 567L244 566z"/>
<path style="fill:#68a3d4; stroke:none;" d="M676 566L677 567L676 566M147.667 567.333L148.333 567.667L147.667 567.333M178 567L178 568L181 568L178 567M677 567L678 568L677 567M144.667 568.333L145.333 568.667L144.667 568.333z"/>
<path style="fill:#a7b73d; stroke:none;" d="M146 568L147 569L146 568z"/>
<path style="fill:#68a3d4; stroke:none;" d="M181.667 568.333L182.333 568.667L181.667 568.333M678 568L679 569L678 568M142.667 569.333L143.333 569.667L142.667 569.333M183.667 569.333L184.333 569.667L183.667 569.333M679 569L680 570L679 569M141 570L142 571L141 570M185 570L185 571L188 572L185 570M680 570L681 571L680 570M139.667 571.333L140.333 571.667L139.667 571.333z"/>
<path style="fill:#a7b73d; stroke:none;" d="M186 571L187 572L186 571z"/>
<path style="fill:#68a3d4; stroke:none;" d="M681 571L682 572L681 571M138 572L139 573L138 572M188 572L191 574L188 572M682 572L683 573L682 572M136.667 573.333L137.333 573.667L136.667 573.333M683 573L684 574L683 573M135 574L136 575L135 574M191 574L192 575L191 574M684 574L685 575L684 574M134 575L135 576L134 575M192 575L193 576L192 575M685 575L686 576L685 575M133 576L134 577L133 576z"/>
<path style="fill:#a7b73d; stroke:none;" d="M157 576.468C115.379 584.32 128.484 647.607 170 640.674C211.905 633.677 198.587 568.622 157 576.468z"/>
<path style="fill:#68a3d4; stroke:none;" d="M193 576L194 577L193 576M686 576L687 577L686 576M132 577L133 578L132 577M194 577L195 578L194 577M687 577L688 578L687 577M131 578L132 579L131 578M195 578L196 579L195 578M688 578L689 579L688 578M130 579L131 580L130 579M196 579L197 580L196 579M606 579L607 580L606 579M689 579L690 580L689 579M129 580L130 581L129 580M197 580L198 581L197 580M607 580L608 581L607 580M690 580L691 581L690 580M128.333 581.667L128.667 582.333L128.333 581.667M198 581L199 582L198 581M608 581L609 582L608 581M691 581L698 589L691 581z"/>
<path style="fill:#a7b73d; stroke:none;" d="M199 582L200 583L199 582z"/>
<path style="fill:#68a3d4; stroke:none;" d="M609 582L610 583L609 582M127 583L128 584L127 583M610 583L611 584L610 583M126.333 584.667L126.667 585.333L126.333 584.667M611 584L612 585L611 584M808 584L808 585L817 585L808 584M612 585L613 586L612 585M803 585L803 586L807 586L803 585z"/>
<path style="fill:#a7b73d; stroke:none;" d="M807 585L808 586L807 585M817 585L818 586L817 585z"/>
<path style="fill:#68a3d4; stroke:none;" d="M818 585L818 586L822 586L818 585M125 586L126 587L125 586M613 586L614 587L613 586M800 586L800 587L803 587L800 586M822 586L822 587L825 587L822 586M124.333 587.667L124.667 588.333L124.333 587.667M614 587L615 588L614 587z"/>
<path style="fill:#a7b73d; stroke:none;" d="M697 587L698 588L697 587z"/>
<path style="fill:#68a3d4; stroke:none;" d="M798.667 587.333L799.333 587.667L798.667 587.333M825.667 587.333L826.333 587.667L825.667 587.333M615 588L616 589L615 588M719 588L719 589L722 589L719 588M796.667 588.333L797.333 588.667L796.667 588.333M827.667 588.333L828.333 588.667L827.667 588.333M123.333 589.667L123.667 590.333L123.333 589.667M616 589L617 590L616 589M698 589L699 590L698 589M722 589L722 590L726 590L722 589M795 589L796 590L795 589M829 589L832 591L829 589M617 590L618 591L617 590M699 590L700 591L699 590M726 590L726 591L729 591L726 590M793.667 590.333L794.333 590.667L793.667 590.333z"/>
<path style="fill:#a7b73d; stroke:none;" d="M123 591L124 592L123 591z"/>
<path style="fill:#68a3d4; stroke:none;" d="M618 591L619 592L618 591M700 591L701 592L700 591z"/>
<path style="fill:#a7b73d; stroke:none;" d="M729 591L730 592L729 591z"/>
<path style="fill:#68a3d4; stroke:none;" d="M730 591L730 592L733 592L730 591M792 591L793 592L792 591M832 591L833 592L832 591M122.333 592.667L122.667 593.333L122.333 592.667M619 592L620 593L619 592M701 592L702 593L701 592M733 592L733 593L737 593L733 592M791 592L792 593L791 592M833 592L837 596L833 592M620 593L621 594L620 593M702.667 593.333L703.333 593.667L702.667 593.333M737 593L737 594L740 594L737 593M788 596L791 593L788 596M121 594L121 597L122 597L121 594M621 594L622 595L621 594M704 594L704 595L707 595L704 594M740 594L740 595L744 595L740 594M622 595L623 596L622 595M707 595L707 596L711 596L707 595M744 595L744 596L747 596L744 595z"/>
<path style="fill:#a7b73d; stroke:none;" d="M344 596L345 597L344 596z"/>
<path style="fill:#68a3d4; stroke:none;" d="M623 596L624 597L623 596M711 596L711 597L714 597L711 596M748 596L748 597L751 597L748 596M787 596L788 597L787 596z"/>
<path style="fill:#a7b73d; stroke:none;" d="M806.667 596.333L807.333 596.667L806.667 596.333z"/>
<path style="fill:#d14d2d; stroke:none;" d="M808 596.529C780.506 602.864 790.953 644.695 818 637.748C844.242 631.009 833.999 590.539 808 596.529z"/>
<path style="fill:#a7b73d; stroke:none;" d="M817.667 596.333L818.333 596.667L817.667 596.333z"/>
<path style="fill:#68a3d4; stroke:none;" d="M837 596L838 597L837 596M624 597L625 598L624 597M715 597L715 598L718 598L715 597M751 597L751 598L755 598L751 597M786 597L787 598L786 597z"/>
<path style="fill:#a7b73d; stroke:none;" d="M804 597L805 598L804 597M820 597L821 598L820 597z"/>
<path style="fill:#68a3d4; stroke:none;" d="M838 597L839 598L838 597M120 598L120 602L121 602L120 598M625 598L626 599L625 598M718 598L718 599L722 599L718 598M755 598L755 599L758 599L755 598M785.333 598.667L785.667 599.333L785.333 598.667z"/>
<path style="fill:#a7b73d; stroke:none;" d="M802 598L803 599L802 598M822 598L823 599L822 598z"/>
<path style="fill:#68a3d4; stroke:none;" d="M839.333 598.667L839.667 599.333L839.333 598.667M612 599L613 600L612 599M626 599L627 600L626 599M722 599L722 600L725 600L722 599M759 599L759 600L762 600L759 599z"/>
<path style="fill:#a7b73d; stroke:none;" d="M800 599L801 600L800 599M824 599L825 600L824 599z"/>
<path style="fill:#68a3d4; stroke:none;" d="M613 600L614 601L613 600M627 600L628 601L627 600M725 600L725 601L729 601L725 600M762 600L762 601L766 601L762 600M784 600L785 601L784 600z"/>
<path style="fill:#a7b73d; stroke:none;" d="M799 600L800 601L799 600z"/>
<path style="fill:#68a3d4; stroke:none;" d="M840 600L841 601L840 600M614 601L615 602L614 601M628 601L629 602L628 601M729 601L729 602L732 602L729 601z"/>
<path style="fill:#a7b73d; stroke:none;" d="M732 601L733 602L732 601z"/>
<path style="fill:#68a3d4; stroke:none;" d="M766 601L766 602L769 602L766 601M783.333 601.667L783.667 602.333L783.333 601.667M841.333 601.667L841.667 602.333L841.333 601.667M119 602L119 615L120 615L119 602M615 602L616 603L615 602M629 602L630 603L629 602M733 602L733 603L736 603L733 602z"/>
<path style="fill:#a7b73d; stroke:none;" d="M769 602L770 603L769 602z"/>
<path style="fill:#68a3d4; stroke:none;" d="M770 602L770 603L773 603L770 602M616 603L617 604L616 603M630 603L631 604L630 603M736 603L736 604L740 604L736 603M773 603L773 604L777 604L773 603M782.333 603.667L782.667 604.333L782.333 603.667M842.333 603.667L842.667 604.333L842.333 603.667M617 604L618 605L617 604M631 604L632 605L631 604M740 604L740 605L743 605L740 604M777 604L777 605L780 605L777 604z"/>
<path style="fill:#a7b73d; stroke:none;" d="M795 604L796 605L795 604M829 604L830 605L829 604z"/>
<path style="fill:#68a3d4; stroke:none;" d="M618 605L619 606L618 605M632 605L633 606L632 605M744 605L744 606L747 606L744 605M780.667 605.333L781.333 605.667L780.667 605.333z"/>
<path style="fill:#a7b73d; stroke:none;" d="M794 605L795 606L794 605M830 605L831 606L830 605z"/>
<path style="fill:#68a3d4; stroke:none;" d="M619 606L620 607L619 606M633 606L634 607L633 606M747 606L747 607L751 607L747 606M843.333 606.667L843.667 607.333L843.333 606.667M620 607L621 608L620 607M634 607L635 608L634 607M751 607L751 608L754 608L751 607z"/>
<path style="fill:#a7b73d; stroke:none;" d="M793 607L794 608L793 607M831 607L832 608L831 607z"/>
<path style="fill:#68a3d4; stroke:none;" d="M621 608L622 609L621 608M635 608L636 609L635 608M755 608L755 609L758 609L755 608M622 609L623 610L622 609M636 609L637 610L636 609M758 609L758 610L762 610L758 609z"/>
<path style="fill:#a7b73d; stroke:none;" d="M792 609L793 610L792 609M832 609L833 610L832 609z"/>
<path style="fill:#68a3d4; stroke:none;" d="M844 609L844 613L845 613L844 609M623 610L624 611L623 610M637 610L638 611L637 610M762 610L762 611L765 611L762 610M624 611L625 612L624 611M638 611L639 612L638 611M765 611L765 612L769 612L765 611M625 612L626 613L625 612M639 612L640 613L639 612M769 612L769 613L772 613L769 612z"/>
<path style="fill:#a7b73d; stroke:none;" d="M772 612L773 613L772 612M791.333 612.667L791.667 613.333L791.333 612.667M833.333 612.667L833.667 613.333L833.333 612.667z"/>
<path style="fill:#68a3d4; stroke:none;" d="M626 613L627 614L626 613M640 613L641 614L640 613M773 613L773 614L776 614L773 613M627 614L628 615L627 614M641 614L642 615L641 614M776 614L776 615L779 615L779 620L780 620C779.737 616.59 779.321 615.099 776 614z"/>
<path style="fill:#a7b73d; stroke:none;" d="M779 614L780 615L779 614z"/>
<path style="fill:#68a3d4; stroke:none;" d="M845 614L845 621L846 621L845 614M120 615L120 620L121 620L120 615M628 615L629 616L628 615M642 615L643 616L642 615M629 616L630 617L629 616M643 616L644 617L643 616M630 617L631 618L630 617M644 617L645 618L644 617M631 618L632 619L631 618M645 618L646 619L645 618M632 619L633 620L632 619M646 619L647 620L646 619M121 620L121 623L122 623L121 620z"/>
<path style="fill:#a7b73d; stroke:none;" d="M205 620L206 621L205 620z"/>
<path style="fill:#68a3d4; stroke:none;" d="M518 620L518 622L520 622L518 620M633 620L634 621L633 620M647 620L648 621L647 620z"/>
<path style="fill:#a7b73d; stroke:none;" d="M791 620L791 623L792 623L791 620z"/>
<path style="fill:#68a3d4; stroke:none;" d="M205.333 621.667L205.667 622.333L205.333 621.667M634 621L635 622L634 621M648 621L649 622L648 621M780 621L780 626L781 626L780 621z"/>
<path style="fill:#a7b73d; stroke:none;" d="M833.333 621.667L833.667 622.333L833.333 621.667z"/>
<path style="fill:#68a3d4; stroke:none;" d="M844 621L845 622L844 621M520 622L521 623L520 622M635 622L636 623L635 622M649 622L650 623L649 622M845 622L846 623L845 622M122 623L122 626L123 626L122 623M521 623L522 624L521 623M636 623L637 624L636 623M650 623L651 624L650 623M846 623L846 624L849 624L846 623M204.333 624.667L204.667 625.333L204.333 624.667z"/>
<path style="fill:#a7b73d; stroke:none;" d="M305 624L306 625L305 624z"/>
<path style="fill:#68a3d4; stroke:none;" d="M522 624L523 625L522 624M637 624L638 625L637 624M651 624L652 625L651 624z"/>
<path style="fill:#a7b73d; stroke:none;" d="M792.333 624.667L792.667 625.333L792.333 624.667z"/>
<path style="fill:#68a3d4; stroke:none;" d="M850 624L850 625L853 625L850 624M523 625L524 626L523 625M638 625L639 626L638 625M652 625L653 626L652 625z"/>
<path style="fill:#a7b73d; stroke:none;" d="M832 625L833 626L832 625z"/>
<path style="fill:#68a3d4; stroke:none;" d="M853 625L853 626L857 626L853 625M123 626L124 627L123 626M203.333 626.667L203.667 627.333L203.333 626.667M524 626L525 627L524 626M639 626L640 627L639 626M653 626L654 627L653 626M781 626L781 629L782 629L781 626M857 626L857 627L860 627L857 626M121.667 627.333L122.333 627.667L121.667 627.333M525 627L526 628L525 627M640 627L641 628L640 627M654 627L655 628L654 627z"/>
<path style="fill:#a7b73d; stroke:none;" d="M793 627L794 628L793 627M831 627L832 628L831 627M860 627L861 628L860 627z"/>
<path style="fill:#68a3d4; stroke:none;" d="M861 627L861 628L864 628L861 627M120 628L121 629L120 628M202.333 628.667L202.667 629.333L202.333 628.667M526 628L527 629L526 628M641 628L642 629L641 628M655 628L656 629L655 628M864 628L864 629L867 629L864 628M118.667 629.333L119.333 629.667L118.667 629.333M420.667 629.333L421.333 629.667L420.667 629.333z"/>
<path style="fill:#a7b73d; stroke:none;" d="M422 629L423 630L422 629z"/>
<path style="fill:#68a3d4; stroke:none;" d="M441.667 629.333L442.333 629.667L441.667 629.333M527 629L528 630L527 629M642 629L643 630L642 629M656 629L657 630L656 629M782.333 629.667L782.667 630.333L782.333 629.667M868 629L868 630L871 630L868 629M116.667 630.333L117.333 630.667L116.667 630.333M201.333 630.667L201.667 631.333L201.333 630.667M418.667 630.333L419.333 630.667L418.667 630.333z"/>
<path style="fill:#a7b73d; stroke:none;" d="M443 630L444 631L443 630z"/>
<path style="fill:#68a3d4; stroke:none;" d="M444 630L445 631L444 630M528 630L529 631L528 630M643 630L644 631L643 630M657 630L658 631L657 630z"/>
<path style="fill:#a7b73d; stroke:none;" d="M795 630L796 631L795 630M829 630L830 631L829 630z"/>
<path style="fill:#68a3d4; stroke:none;" d="M871 630L871 631L875 631L871 630M115 631L116 632L115 631M416.667 631.333L417.333 631.667L416.667 631.333M446 631L447 632L446 631M529 631L530 632L529 631M644 631L645 632L644 631M658 631L659 632L658 631M783.333 631.667L783.667 632.333L783.333 631.667z"/>
<path style="fill:#a7b73d; stroke:none;" d="M796 631L797 632L796 631M828 631L829 632L828 631z"/>
<path style="fill:#68a3d4; stroke:none;" d="M875 631L875 632L878 632L875 631M113.667 632.333L114.333 632.667L113.667 632.333M200 632L201 633L200 632M413 634L416 633L413 634M447.667 632.333L448.333 632.667L447.667 632.333M530 632L531 633L530 632M645 632L646 633L645 632M659 632L660 633L659 632z"/>
<path style="fill:#a7b73d; stroke:none;" d="M797 632L798 633L797 632M827 632L828 633L827 632z"/>
<path style="fill:#68a3d4; stroke:none;" d="M841 632L841 633L845 633L841 632M879 632L879 633L882 633L879 632M111.667 633.333L112.333 633.667L111.667 633.333M199.333 633.667L199.667 634.333L199.333 633.667z"/>
<path style="fill:#a7b73d; stroke:none;" d="M414 633L415 634L414 633z"/>
<path style="fill:#68a3d4; stroke:none;" d="M449 633L450 634L449 633M531 633L532 634L531 633M646 633L647 634L646 633M660 633L661 634L660 633M784.333 633.667L784.667 634.333L784.333 633.667z"/>
<path style="fill:#a7b73d; stroke:none;" d="M798 633L799 634L798 633M826 633L827 634L826 633z"/>
<path style="fill:#68a3d4; stroke:none;" d="M840.333 633.667L840.667 634.333L840.333 633.667M846 633L846 634L849 634L846 633M882 633L883 636L884 636L884 633L882 633M110 634L111 635L110 634M412 634L413 635L412 634M450 634L450 635L453 636L450 634M532 634L533 635L532 634M647 634L648 635L647 634M661 634L662 635L661 634z"/>
<path style="fill:#a7b73d; stroke:none;" d="M799 634L800 635L799 634M825 634L826 635L825 634z"/>
<path style="fill:#68a3d4; stroke:none;" d="M849 634L849 635L853 635L849 634M108 635L109 636L108 635z"/>
<path style="fill:#a7b73d; stroke:none;" d="M109 635L110 636L109 635z"/>
<path style="fill:#68a3d4; stroke:none;" d="M127.667 635.333L128.333 635.667L127.667 635.333M198 635L199 636L198 635M411 635L412 636L411 635z"/>
<path style="fill:#a7b73d; stroke:none;" d="M451 635L452 636L451 635z"/>
<path style="fill:#68a3d4; stroke:none;" d="M533 635L538 639L533 635M648 635L649 636L648 635M662 635L663 636L662 635M785 635L786 636L785 635z"/>
<path style="fill:#a7b73d; stroke:none;" d="M801 635L802 636L801 635M823 635L824 636L823 635z"/>
<path style="fill:#68a3d4; stroke:none;" d="M839 635L840 636L839 635M853 635L853 636L856 636L853 635M106.667 636.333L107.333 636.667L106.667 636.333M125.667 636.333L126.333 636.667L125.667 636.333M129 636L130 637L129 636M197 636L198 637L197 636M410 636L411 637L410 636M453 636L454 637L453 636M649 636L650 637L649 636M663 636L664 637L663 636M786.333 636.667L786.667 637.333L786.333 636.667z"/>
<path style="fill:#a7b73d; stroke:none;" d="M802 636L803 637L802 636M822 636L823 637L822 636z"/>
<path style="fill:#68a3d4; stroke:none;" d="M838.333 636.667L838.667 637.333L838.333 636.667M856 636L856 637L860 637L856 636M882.333 636.667L882.667 637.333L882.333 636.667M104.667 637.333L105.333 637.667L104.667 637.333M124 637L125 638L124 637M130 637L131 638L130 637M196 637L192 642L196 637M409 637L410 638L409 637M454 637L456 640L454 637M650 637L651 638L650 637M664 637L665 638L664 637z"/>
<path style="fill:#a7b73d; stroke:none;" d="M805 637L806 638L805 637M819.667 637.333L820.333 637.667L819.667 637.333z"/>
<path style="fill:#68a3d4; stroke:none;" d="M860 637L860 638L863 638L860 637z"/>
<path style="fill:#a7b73d; stroke:none;" d="M863 637L864 638L863 637z"/>
<path style="fill:#68a3d4; stroke:none;" d="M103 638L104 639L103 638M122.667 638.333L123.333 638.667L122.667 638.333M131 638L132 639L131 638M408 638L409 639L408 638M651 638L652 639L651 638M665 638L666 639L665 638M787 638L788 639L787 638z"/>
<path style="fill:#a7b73d; stroke:none;" d="M808 638L808 639L811 639L808 638M814 638L814 639L817 639L814 638z"/>
<path style="fill:#68a3d4; stroke:none;" d="M837 638L838 639L837 638M864 638L864 639L867 639L864 638M101 639L101 642L102 642L103 639L101 639M120.667 639.333L121.333 639.667L120.667 639.333M132 639L133 640L132 639M407 639L408 640L407 639M427 639.529C402.862 645.108 412.76 682.8 437 676.442C460.768 670.208 450.533 634.091 427 639.529M538 639L539 640L538 639M652 639L653 640L652 639M666 639L667 640L666 639M788 639L789 640L788 639M836 639L837 640L836 639M867 639L867 640L871 640L867 639M881.333 639.667L881.667 640.333L881.333 639.667M119 640L120 641L119 640M133 640L134 641L133 640M406.333 640.667L406.667 641.333L406.333 640.667M456 640L457 641L456 640M539 640L540 641L539 640M653 640L654 641L653 640M667 640L668 641L667 640M789 640L790 641L789 640M835 640L836 641L835 640M871 640L871 641L874 641L871 640M117.667 641.333L118.333 641.667L117.667 641.333M134 641L135 642L134 641M457.333 641.667L457.667 642.333L457.333 641.667M540 641L541 642L540 641M654 641L655 642L654 641M668 641L669 642L668 641M790 641L791 642L790 641M834 641L835 642L834 641M875 641L875 642L878 642L875 641M880 641L878 642L878 643L880 641z"/>
<path style="fill:#a7b73d; stroke:none;" d="M102 642L103 643L102 642z"/>
<path style="fill:#68a3d4; stroke:none;" d="M115.667 642.333L116.333 642.667L115.667 642.333M135 642L136 643L135 642M191 642L192 643L191 642M405 642L406 643L405 642M541 642L542 643L541 642M655 642L656 643L655 642M669 642L670 643L669 642M791 642L792 643L791 642M833 642L834 643L833 642M102.333 643.667L102.667 644.333L102.333 643.667z"/>
<path style="fill:#a7b73d; stroke:none;" d="M113 643L114 644L113 643z"/>
<path style="fill:#68a3d4; stroke:none;" d="M114 643L115 644L114 643M136 643L137 644L136 643M190 643L191 644L190 643M458.333 643.667L458.667 644.333L458.333 643.667M542 643L543 644L542 643M656 643L657 644L656 643M670 643L671 644L670 643M792.667 643.333L793.333 643.667L792.667 643.333M831.667 643.333L832.333 643.667L831.667 643.333M112 644L113 645L112 644M137.667 644.333L138.333 644.667L137.667 644.333M188.667 644.333L189.333 644.667L188.667 644.333M404 644L405 645L404 644M543 644L544 645L543 644M657 644L658 645L657 644M671 644L672 645L671 644M794 644L795 645L794 644M830 644L831 645L830 644M103 645L103 648L104 648L103 645M110.667 645.333L111.333 645.667L110.667 645.333M139 645L140 646L139 645M187 645L188 646L187 645M459.333 645.667L459.667 646.333L459.333 645.667M544 645L545 646L544 645M658 645L659 646L658 645M672 645L673 646L672 645M795.667 645.333L796.333 645.667L795.667 645.333M828.667 645.333L829.333 645.667L828.667 645.333M108.667 646.333L109.333 646.667L108.667 646.333M140.667 646.333L141.333 646.667L140.667 646.333M185.667 646.333L186.333 646.667L185.667 646.333M403.333 646.667L403.667 647.333L403.333 646.667M545 646L546 647L545 646M659 646L660 647L659 646M673 646L674 647L673 646M797.667 646.333L798.333 646.667L797.667 646.333M826.667 646.333L827.333 646.667L826.667 646.333M107 647L108 648L107 647M142.667 647.333L143.333 647.667L142.667 647.333M183.667 647.333L184.333 647.667L183.667 647.333M460 647L460 650L461 650L460 647M546 647L547 648L546 647M660 647L661 648L660 647M674 647L675 648L674 647M799.667 647.333L800.333 647.667L799.667 647.333M824.667 647.333L825.333 647.667L824.667 647.333M104 648L104 649L107 649L104 648M144.667 648.333L145.333 648.667L144.667 648.333M181.667 648.333L182.333 648.667L181.667 648.333M402 648L402 651L403 651L402 648M547 648L548 649L547 648M661 648L662 649L661 648M675 648L676 649L675 648M801 648L801 649L804 649L801 648M821 648L821 649L824 649L821 648M146.667 649.333L147.333 649.667L146.667 649.333M179.667 649.333L180.333 649.667L179.667 649.333M548 649L549 650L548 649M662 649L663 650L662 649M676 649L677 650L676 649M805 649L805 650L810 650L805 649z"/>
<path style="fill:#a7b73d; stroke:none;" d="M810 649L811 650L810 649z"/>
<path style="fill:#68a3d4; stroke:none;" d="M815 649L815 650L820 650L815 649M149.667 650.333L150.333 650.667L149.667 650.333z"/>
<path style="fill:#a7b73d; stroke:none;" d="M151 650L152 651L151 650z"/>
<path style="fill:#68a3d4; stroke:none;" d="M176.667 650.333L177.333 650.667L176.667 650.333M461 650L461 655L462 655L461 650M549 650L550 651L549 650M663 650L664 651L663 650M677 650L678 651L677 650M152 651L152 652L156 652L152 651M171 651L171 652L175 652L171 651z"/>
<path style="fill:#a7b73d; stroke:none;" d="M402 651L403 652L402 651z"/>
<path style="fill:#68a3d4; stroke:none;" d="M550 651L551 652L550 651M664 651L665 652L664 651M678 651L679 652L678 651M156 652L156 653L171 653L156 652M401 652L401 664L402 664L401 652M551 652L557 657L551 652M665 652L666 653L665 652M679 652L680 653L679 652M666 653L667 654L666 653M680 653L681 654L680 653M667 654L668 655L667 654M681 654L682 655L681 654M668 655L669 656L668 655M682 655L683 656L682 655M669 656L670 657L669 656M683 656L684 657L683 656M557 657L558 658L557 657M670 657L671 658L670 657M684 657L685 658L684 657M558 658L559 659L558 658M671 658L672 659L671 658M685 658L686 659L685 658M559 659L560 660L559 659M672 659L673 660L672 659M686 659L687 660L686 659M560 660L561 661L560 660M673 660L674 661L673 660M687 660L688 661L687 660M461 661L461 666L462 666L461 661M561 661L562 662L561 661M674 661L675 662L674 661M688 661L689 662L688 661M562 662L563 663L562 662M675 662L676 663L675 662M689 662L690 663L689 662M563 663L564 664L563 663M676 663L677 664L676 663M690 663L691 664L690 663M564 664L565 665L564 664M677 664L678 665L677 664M691 664L692 665L691 664M402 665L402 668L403 668L402 665M565 665L566 666L565 665M678 665L679 666L678 665M692 665L693 666L692 665M460 666L460 669L461 669L460 666M566 666L567 667L566 666M679 666L680 667L679 666M693 666L694 667L693 666M567 667L568 668L567 667M680 667L681 668L680 667M694 667L695 668L694 667M403.333 668.667L403.667 669.333L403.333 668.667M568 668L569 669L568 668M681 668L682 669L681 668M695 668L696 669L695 668M459.333 669.667L459.667 670.333L459.333 669.667M569 669L570 670L569 669M682 669L683 670L682 669M696 669L697 670L696 669M570 670L575 674L570 670M683 670L684 671L683 670M697 670L698 671L697 670M404 671L405 672L404 671M458.333 671.667L458.667 672.333L458.333 671.667M684 671L685 672L684 671M698 671L699 672L698 671M685 672L686 673L685 672M699 672L700 673L699 672M405 673L406 674L405 673M457.333 673.667L457.667 674.333L457.333 673.667M686 673L687 674L686 673M700 673L701 674L700 673M406.333 674.667L406.667 675.333L406.333 674.667M575 674L576 675L575 674M687 674L688 675L687 674M701 674L702 675L701 674M456 675L457 676L456 675M576 675L577 676L576 675M688 675L689 676L688 675M702 675L703 676L702 675M407 676L408 677L407 676M455 676L454 679L455 676M577 676L578 677L577 676M689 676L690 677L689 676M703 676L704 677L703 676z"/>
<path style="fill:#a7b73d; stroke:none;" d="M267 677L268 678L267 677z"/>
<path style="fill:#68a3d4; stroke:none;" d="M408 677L409 678L408 677z"/>
<path style="fill:#a7b73d; stroke:none;" d="M454 677L455 678L454 677z"/>
<path style="fill:#68a3d4; stroke:none;" d="M578 677L579 678L578 677M690 677L691 678L690 677M704 677L705 678L704 677M409 678L410 679L409 678M579 678L580 679L579 678M691 678L692 679L691 678M705 678L706 679L705 678M410 679L411 680L410 679M453 679L454 680L453 679M580 679L581 680L580 679M692 679L693 680L692 679M706 679L707 680L706 679M411 680L412 681L411 680M452 680L453 681L452 680M581 680L582 681L581 680M693 680L694 681L693 680M707 680L708 681L707 680M412 681L413 682L412 681M450.667 681.333L451.333 681.667L450.667 681.333M582 681L583 682L582 681M694 681L695 682L694 681M708 681L709 682L708 681M413 682L414 683L413 682M449 682L450 683L449 682M583 682L584 683L583 682M695 682L696 683L695 682M709 682L710 683L709 682M414.667 683.333L415.333 683.667L414.667 683.333z"/>
<path style="fill:#a7b73d; stroke:none;" d="M447 683L448 684L447 683z"/>
<path style="fill:#68a3d4; stroke:none;" d="M448 683L449 684L448 683M584 683L585 684L584 683M696 683L697 684L696 683M710 683L711 684L710 683M416.667 684.333L417.333 684.667L416.667 684.333M446 684L447 685L446 684M585 684L586 685L585 684M697 684L698 685L697 684M711 684L712 685L711 684M418.667 685.333L419.333 685.667L418.667 685.333M444.667 685.333L445.333 685.667L444.667 685.333M586 685L587 686L586 685M698 685L699 686L698 685M712 685L713 686L712 685M420.667 686.333L421.333 686.667L420.667 686.333z"/>
<path style="fill:#a7b73d; stroke:none;" d="M422 686L423 687L422 686z"/>
<path style="fill:#68a3d4; stroke:none;" d="M441.667 686.333L442.333 686.667L441.667 686.333M587 686L588 687L587 686M699 686L700 687L699 686M713 686L714 687L713 686M423 687L423 688L427 688L423 687M438 687L438 688L441 688L438 687M588 687L594 692L588 687M700 687L701 688L700 687M714 687L715 688L714 687M427 688L427 798L428 798L428 721L427 688M437 688L437 802L438 802L438 723L437 688M701 688L702 689L701 688M715 688L716 689L715 688M702 689L703 690L702 689M716 689L717 690L716 689M703 690L704 691L703 690M717 690L718 691L717 690M704 691L705 692L704 691M718 691L719 692L718 691M594 692L595 693L594 692M705 692L706 693L705 692M719 692L720 693L719 692M595 693L596 694L595 693M706 693L707 694L706 693M720 693L721 694L720 693M596 694L597 695L596 694M707 694L708 695L707 694M721 694L722 695L721 694M597 695L598 696L597 695M708 695L709 696L708 695M722 695L723 696L722 695M598 696L599 697L598 696M709 696L710 697L709 696M723 696L724 697L723 696M599 697L600 698L599 697M710 697L711 698L710 697M724 697L725 698L724 697M600 698L601 699L600 698M711 698L712 699L711 698M725 698L726 699L725 698M601 699L602 700L601 699M712 699L713 700L712 699M726 699L727 700L726 699M602 700L603 701L602 700M713 700L714 701L713 700M727 700L728 701L727 700M603 701L604 702L603 701M714 701L715 702L714 701M728 701L729 702L728 701M604 702L605 703L604 702M715 702L716 703L715 702M729 702L730 703L729 702M605 703L606 704L605 703M716 703L717 704L716 703M730 703L731 704L730 703M606 704L612 709L606 704M717 704L718 705L717 704M731 704L732 705L731 704M718 705L719 706L718 705M732 705L733 706L732 705M719 706L720 707L719 706M733 706L734 707L733 706M720 707L721 708L720 707M734 707L735 708L734 707M721 708L722 709L721 708M735 708L735 709C752.258 709 780.746 703.608 796 712C792.901 706.38 785.644 708 780 708L735 708M612 709L613 710L612 709M722 709L723 710L722 709M613 710L614 711L613 710M723 710L724 711L723 710M614 711L615 712L614 711M724 711L725 712L724 711M615 712L616 713L615 712M725 712L726 713L725 712M796 712L797 713L796 712M616 713L617 714L616 713M726 713L727 714L726 713M797 713L798 714L797 713M617 714L618 715L617 714M727 714L728 715L727 714M798 714L799 715L798 714M618 715L619 716L618 715M728 715L729 716L728 715M799 715L800 716L799 715M619 716L620 717L619 716M729 716L730 717L729 716M800 716L802 719L800 716M620 717L621 718L620 717M730 717L731 718L730 717M621 718L622 719L621 718M731 718L731 719L789 719L770 718L731 718M622 719L623 720L622 719M789 719L790 720L789 719M802 719L803 720L802 719M623 720L624 721L623 720M790 720L791 721L790 720M803 720L804 721L803 720M624 721L625 722L624 721M791 721L792 722L791 721M804 721L805 722L804 721M625 722L630 726L625 722M792 722L793 723L792 722M805 722L806 723L805 722M793 723L795 726L793 723M806 723L808 726L806 723M630 726L631 727L630 726M795 726L796 727L795 726M808 726L809 727L808 726M631 727L632 728L631 727M796 727L797 728L796 727M809 727L810 728L809 727M632 728L633 729L632 728M797 728L798 729L797 728M810 728L811 729L810 728M633 729L634 730L633 729M798 729L799 730L798 729M811 729L812 730L811 729M634 730L635 731L634 730M799 730L801 733L799 730M812 730L814 733L812 730M635 731L636 732L635 731M636 732L637 733L636 732M637 733L638 734L637 733M801 733L802 734L801 733M814 733L815 734L814 733M638 734L639 735L638 734M802 734L803 735L802 734M815 734L816 735L815 734M639 735L639 740L640 740L639 735M803 735L804 736L803 735M816 735L817 736L816 735M804 736L805 737L804 736M817 736L818 737L817 736M805 737L807 740L805 737M818 737L820 740L818 737M640 740L640 745L641 745L640 740M807 740L808 741L807 740M820 740L821 741L820 740M650 741L650 746L651 746L650 741M808 741L809 742L808 741M821 741L822 742L821 741M809 742L810 743L809 742M822 742L823 743L822 742M810 743L811 744L810 743M823 743L824 744L823 743M811 744L813 747L811 744M824 744L824 748L825 748L824 744M641 745L641 750L642 750L641 745M651 746L651 751L652 751L651 746M813 747L814 748L813 747M814 748L815 749L814 748M823 748L824 749L823 748M815 749L816 750L815 749M822 749L823 750L822 749M816 750L817 751L816 750M821.333 750.667L821.667 751.333L821.333 750.667M642 751L642 756L643 756L642 751M652 751L652 757L653 757L652 751M817 751L820 754L817 751M820 752L821 753L820 752M643 756L643 761L644 761L643 756M653 757L653 762L654 762L653 757M644 761L644 767L645 767L644 761M654 762L654 767L655 767L654 762M645 767L645 772L646 772L645 767M655 768L655 772L656 772L655 768M646 772L647 773L646 772M656 772L657 773L656 772M644.667 773.333L645.333 773.667L644.667 773.333M657 773L657 774L660 774L657 773M641 774L641 775L644 775L641 774M660 774L660 775L663 775L660 774M639.667 775.333L640.333 775.667L639.667 775.333M663.667 775.333L664.333 775.667L663.667 775.333M638 776L639 777L638 776M665 776L668 778L665 776M636.667 777.333L637.333 777.667L636.667 777.333M635 778L636 779L635 778M668 778L669 779L668 778M634 779L635 780L634 779M669 779L670 780L669 779M633 780L634 781L633 780M670 780L671 781L670 780M632 781L633 782L632 781M671 781L672 782L671 781M631 782L630 785L631 782M672 782L673 783L672 782M673.333 783.667L673.667 784.333L673.333 783.667z"/>
<path style="fill:#a7b73d; stroke:none;" d="M649 784.537C631.315 788.62 637.278 816.553 655 812.463C672.925 808.326 666.866 780.412 649 784.537z"/>
<path style="fill:#68a3d4; stroke:none;" d="M629.333 785.667L629.667 786.333L629.333 785.667M674 785L675 786L674 785M628.333 787.667L628.667 788.333L628.333 787.667M675.333 787.667L675.667 788.333L675.333 787.667M627 789L627 792L628 792L627 789M676.333 789.667L676.667 790.333L676.333 789.667M626 792L626 805L627 805L626 792M677 792L677 797L678 797L677 792M426 798L427 799L426 798M422 802L426 799L422 802M677 800L677 805L678 805L677 800M421 802L422 803L421 802M436 802L437 803L436 802M420 803L421 804L420 803M435 803L436 804L435 803M419 804L420 805L419 804M434 804L435 805L434 804M418 805L419 806L418 805M430 808L434 805L430 808M627 805L627 808L628 808L627 805M417 806L418 807L417 806M676.333 806.667L676.667 807.333L676.333 806.667M416 807L417 808L416 807M415 808L416 809L415 808M429 808L430 809L429 808M628.333 808.667L628.667 809.333L628.333 808.667M675.333 808.667L675.667 809.333L675.333 808.667M414 809L415 810L414 809M428 809L429 810L428 809M413 810L414 811L413 810M427 810L428 811L427 810M629.333 810.667L629.667 811.333L629.333 810.667M412 811L413 812L412 811M426 811L427 812L426 811M674 811L675 812L674 811M410.667 812.333L411.333 812.667L410.667 812.333M425 812L426 813L425 812M630 812L631 813L630 812M673.333 812.667L673.667 813.333L673.333 812.667M409 813L410 814L409 813M424 813L425 814L424 813M631.333 813.667L631.667 814.333L631.333 813.667M408 814L409 815L408 814M423 814L424 815L423 814M672 814L673 815L672 814M407 815L408 816L407 815M422 815L423 816L422 815M632 815L633 816L632 815M671 815L672 816L671 815M406 816L407 817L406 816M420.667 816.333L421.333 816.667L420.667 816.333M633 816L634 817L633 816M670 816L671 817L670 816M405 817L406 818L405 817M419 817L420 818L419 817M634 817L635 818L634 817M669 817L670 818L669 817M404 818L405 819L404 818M418 818L419 819L418 818M635 818L636 819L635 818M668 818L669 819L668 818M403 819L404 820L403 819M417 819L418 820L417 819M636.667 819.333L637.333 819.667L636.667 819.333M666.667 819.333L667.333 819.667L666.667 819.333M402 820L403 821L402 820M416 820L417 821L416 820M638 820L639 821L638 820M665 820L665 826L666 826L665 820M401 821L402 822L401 821M415 821L416 822L415 821M639.667 821.333L640.333 821.667L639.667 821.333M400 822L401 823L400 822M414 822L415 823L414 822M641 822L641 823L644 823L641 822M399 823L400 824L399 823M413 823L414 824L413 823M644 823L644 824L648 824L644 823M397.667 824.333L398.333 824.667L397.667 824.333M412 824L413 825L412 824M648 824L648 825L656 826L648 824M396 825L397 826L396 825M411 825L412 826L411 825M395 826L396 827L395 826M410 826L411 827L410 826M656 826L656 831L657 831L656 826M394 827L395 828L394 827M408.667 827.333L409.333 827.667L408.667 827.333M666 827L666 832L667 832L666 827M393 828L394 829L393 828M407 828L408 829L407 828M392 829L393 830L392 829M406 829L407 830L406 829M391 830L392 831L391 830M405 830L406 831L405 830M390 831L391 832L390 831M404 831L405 832L404 831M657 831L657 836L658 836L657 831M389 832L390 833L389 832M403 832L404 833L403 832M667 832L667 837L668 837L667 832M388 833L389 834L388 833M402 833L403 834L402 833M387 834L388 835L387 834M401 834L402 835L401 834M385.667 835.333L386.333 835.667L385.667 835.333M400 835L401 836L400 835M384 836L385 837L384 836M399 836L400 837L399 836M383 837L384 838L383 837M398 837L399 838L398 837M658 837L658 842L659 842L658 837M382 838L383 839L382 838M397 838L398 839L397 838M668 838L668 843L669 843L668 838M381 839L382 840L381 839M395.667 839.333L396.333 839.667L395.667 839.333M380 840L381 841L380 840M394 840L395 841L394 840M379 841L380 842L379 841M393 841L394 842L393 841M378 842L379 843L378 842M392 842L393 843L392 842M659 842L659 847L660 847L659 842M377 843L378 844L377 843M391 843L392 844L391 843M669 843L669 848L670 848L669 843M376 844L377 845L376 844M390 844L391 845L390 844M375 845L376 846L375 845M389 845L390 846L389 845M373.667 846.333L374.333 846.667L373.667 846.333M388 846L389 847L388 846M372 847L373 848L372 847M387 847L388 848L387 847M371 848L372 849L371 848M386 848L387 849L386 848M660 848L660 853L661 853L660 848M670 848L670 853L671 853L670 848M370 849L371 850L370 849M385 849L386 850L385 849M369 850L370 851L369 850M383.667 850.333L384.333 850.667L383.667 850.333M368 851L369 852L368 851M382 851L383 852L382 851M367 852L368 853L367 852M381 852L382 853L381 852M366 853L367 854L366 853M380 853L381 854L380 853M661 853L661 858L662 858L661 853M365 854L366 855L365 854M379 854L380 855L379 854M671 854L671 859L672 859L671 854M364 855L365 856L364 855M378 855L379 856L378 855M363 856L364 857L363 856M377 856L378 857L377 856M361.667 857.333L362.333 857.667L361.667 857.333M376 857L377 858L376 857M360 858L361 859L360 858M375 858L376 859L375 858M662 858L662 863L663 863L662 858M359 859L360 860L359 859M374 859L375 860L374 859M672 859L672 864L673 864L672 859M358 860L359 861L358 860M373 860L374 861L373 860M357 861L358 862L357 861M371.667 861.333L372.333 861.667L371.667 861.333M356 862L357 863L356 862M370 862L371 863L370 862M355 863L356 864L355 863M369 863L370 864L369 863M354 864L355 865L354 864M368 864L369 865L368 864M663 864L663 869L664 869L663 864M673 864L673 869L674 869L673 864M353 865L354 866L353 865M367 865L368 866L367 865M352 866L353 867L352 866M366 866L367 867L366 866M351 867L352 868L351 867M365 867L366 868L365 867M350 868L351 869L350 868M364 868L365 869L364 868M348.667 869.333L349.333 869.667L348.667 869.333M363 869L364 870L363 869M664 869L664 874L665 874L664 869M347 870L348 871L347 870M362 870L363 871L362 870M674 870L674 873L675 873L674 870M346 871L347 872L346 871M361 871L362 872L361 871M345 872L346 873L345 872M359.667 872.333L360.333 872.667L359.667 872.333M344 873L345 874L344 873M358 873L359 874L358 873M672.667 873.333L673.333 873.667L672.667 873.333M343 874L344 875L343 874M357 874L358 875L357 874M665 874L668 877L668 876L665 874M670.667 874.333L671.333 874.667L670.667 874.333M342 875L343 876L342 875M356 875L357 876L356 875M668.667 875.333L669.333 875.667L668.667 875.333M341 876L342 877L341 876M355 876L356 877L355 876M340 877L341 878L340 877M354 877L355 878L354 877M339 878L340 879L339 878M353 878L354 879L353 878M338 879L339 880L338 879M352 879L353 880L352 879M336.667 880.333L337.333 880.667L336.667 880.333M351 880L352 881L351 880M335 881L336 882L335 881M350 881L351 882L350 881M334 882L335 883L334 882M349 882L350 883L349 882M333 883L333 885L335 885L333 883M348 883L349 884L348 883M346.667 884.333L347.333 884.667L346.667 884.333M335.667 885.333L336.333 885.667L335.667 885.333M345 885L346 886L345 885M337 886L337 887L340 887L337 886M344 886L345 887L344 886M340 887L340 888L344 888L340 887M252 932L253 933L252 932M744 932L745 933L744 932M271 942L272 943L271 942M725 942L726 943L725 942M273 943L274 944L273 943M723 943L724 944L723 943M277 945L278 946L277 945M719 945L720 946L719 945M279 946L280 947L279 946M717 946L718 947L717 946M283 948L284 949L283 948M288 950L289 951L288 950M696 956L697 957L696 956M325 966L326 967L325 966M671 966L672 967L671 966M581 990L582 991L581 990z"/>
</svg>
